<svg width="1159" height="1257" viewBox="0 0 1159 1257" fill="none" xmlns="http://www.w3.org/2000/svg">
<path d="M970.747 212.796L1133.14 303.937V486.218L970.747 577.359L808.35 486.218V303.937L970.747 212.796Z" fill="#C4C4C4"/>
<path d="M188.308 212.796L350.704 303.937V486.218L188.308 577.359L25.9114 486.218V303.937L188.308 212.796Z" fill="#C4C4C4"/>
<path d="M579.527 0.0539551L741.924 91.1947V273.476L579.527 364.617L417.131 273.476V91.1947L579.527 0.0539551Z" fill="#C4C4C4"/>
<path d="M188.308 666.116L350.704 757.256V939.538L188.308 1030.68L25.9114 939.538V757.256L188.308 666.116Z" fill="#C4C4C4"/>
<path d="M579.527 891.56L741.924 982.701V1164.98L579.527 1256.12L417.131 1164.98V982.701L579.527 891.56Z" fill="#C4C4C4"/>
<path d="M970.747 666.116L1133.14 757.256V939.538L970.747 1030.68L808.35 939.538V757.256L970.747 666.116Z" fill="#C4C4C4"/>
<g filter="url(#filter0_d)">
<path d="M419.636 221.098L288.682 296.956L287.394 399.748C261.099 421.802 238.091 473.437 229.874 496.497L140.812 546.065L142.331 703.945L232.116 758.925C241.859 788.327 258.039 823.122 287.196 848.183L287.895 954.9L417.845 1030.44L505.71 978.701C567.783 986.55 571.968 984.457 622.222 981.235L706.279 1029.96L840.055 954.531L842.176 850.625C866.827 820.142 880.345 797.877 899.43 755.201L986.059 699.971V545.964L897.799 497.071L894.907 489.696C877.797 443.416 858.748 422.462 840.174 401.339V296.692L705.5 221.098L617.664 271.404H507.471L419.636 221.098Z" stroke="white" stroke-width="20"/>
</g>
<defs>
<filter id="filter0_d" x="126.756" y="209.558" width="873.304" height="840.463" filterUnits="userSpaceOnUse" color-interpolation-filters="sRGB">
<feFlood flood-opacity="0" result="BackgroundImageFix"/>
<feColorMatrix in="SourceAlpha" type="matrix" values="0 0 0 0 0 0 0 0 0 0 0 0 0 0 0 0 0 0 127 0"/>
<feOffset dy="4"/>
<feGaussianBlur stdDeviation="2"/>
<feColorMatrix type="matrix" values="0 0 0 0 0 0 0 0 0 0 0 0 0 0 0 0 0 0 0.25 0"/>
<feBlend mode="normal" in2="BackgroundImageFix" result="effect1_dropShadow"/>
<feBlend mode="normal" in="SourceGraphic" in2="effect1_dropShadow" result="shape"/>
</filter>
</defs>
</svg>
